<?xml version="1.0" encoding="UTF-8" standalone="no"?>
<!-- Created with Inkscape (http://www.inkscape.org/) -->

<svg
   xmlns:dc="http://purl.org/dc/elements/1.1/"
   xmlns:cc="http://creativecommons.org/ns#"
   xmlns:rdf="http://www.w3.org/1999/02/22-rdf-syntax-ns#"
   xmlns:svg="http://www.w3.org/2000/svg"
   xmlns="http://www.w3.org/2000/svg"
   xmlns:sodipodi="http://sodipodi.sourceforge.net/DTD/sodipodi-0.dtd"
   xmlns:inkscape="http://www.inkscape.org/namespaces/inkscape"
   width="459.68082"
   height="441.66623"
   id="svg6633"
   version="1.1"
   inkscape:version="0.48.2 r9819"
   sodipodi:docname="Documento nuevo 8">
  <defs
     id="defs6635" />
  <sodipodi:namedview
     id="base"
     pagecolor="#ffffff"
     bordercolor="#666666"
     borderopacity="1.0"
     inkscape:pageopacity="0.0"
     inkscape:pageshadow="2"
     inkscape:zoom="0.35"
     inkscape:cx="229.84041"
     inkscape:cy="220.83311"
     inkscape:document-units="px"
     inkscape:current-layer="layer1"
     showgrid="false"
     fit-margin-top="0"
     fit-margin-left="0"
     fit-margin-right="0"
     fit-margin-bottom="0"
     inkscape:window-width="478"
     inkscape:window-height="426"
     inkscape:window-x="154"
     inkscape:window-y="154"
     inkscape:window-maximized="0" />
  <metadata
     id="metadata6638">
    <rdf:RDF>
      <cc:Work
         rdf:about="">
        <dc:format>image/svg+xml</dc:format>
        <dc:type
           rdf:resource="http://purl.org/dc/dcmitype/StillImage" />
        <dc:title></dc:title>
      </cc:Work>
    </rdf:RDF>
  </metadata>
  <g
     inkscape:label="Capa 1"
     inkscape:groupmode="layer"
     id="layer1"
     transform="translate(-120.15959,-311.52907)">
    <g
       id="g4922"
       transform="matrix(0.99968949,0.0249187,-0.0249187,0.99968949,-47.108567,89.17837)">
      <path
         style="fill:#efd08c"
         d="m 203.8716,656.95831 c -4.06311,-1.6721 -13.92419,-11.06966 -17.45076,-16.63048 -4.5339,-7.1492 -4.44362,-12.04419 0.29566,-16.03205 2.36284,-1.98819 5.08887,-3.07923 7.69365,-3.07923 3.74773,0 8.50182,-4.49716 66.95422,-63.33575 52.07564,-52.41969 87.38131,-89.9599 113.01029,-120.16284 1.96949,-2.32096 0.93784,-3.39494 -26.06597,-27.13555 -6.25613,-5.50012 -18.83408,-16.61378 -27.95098,-24.697 C 300.3373,368.13494 193.10031,261.5511 190.70337,257.02076 c -2.48059,-4.68844 -2.11555,-13.31345 0.80584,-19.03985 3.22739,-6.32621 13.314,-16.13876 19.45867,-18.92997 5.76257,-2.61764 12.4167,-2.83133 17.62204,-0.56591 4.24249,1.84638 98.88918,96.40498 122.14596,122.03227 8.01443,8.83132 18.45758,20.3388 23.20699,25.57217 4.74942,5.23338 13.56423,15.29962 19.58848,22.36943 6.02424,7.0698 11.68252,12.68973 12.57396,12.48873 0.89142,-0.20099 15.15402,-15.61955 31.69467,-34.26346 16.54063,-18.6439 41.30232,-45.40548 55.02597,-59.47018 50.6189,-51.87683 90.59135,-91.92058 95.10412,-95.27374 3.76992,-2.80121 5.83766,-3.44675 11.04018,-3.44675 3.5208,0 8.12377,0.71976 10.22883,1.59947 5.38735,2.25141 17.00741,13.18396 20.68745,19.46348 4.13944,7.06343 4.36953,15.90519 0.57373,22.04693 -3.98136,6.44198 -115.8423,116.0619 -143.51061,140.63552 -45.23158,40.17247 -49.36021,43.89995 -49.35097,44.55598 0.008,0.60688 3.82945,5.05835 22.51523,26.23099 3.75268,4.25211 10.44398,12.01297 14.86956,17.24635 4.42558,5.23337 35.84009,37.48108 69.81004,71.66157 58.41445,58.77647 61.99229,62.14633 65.98179,62.14633 4.89244,0 11.17166,5.32341 11.17166,9.47112 0,6.56674 -11.43802,20.19506 -20.62708,24.57701 -7.47945,3.56671 -15.05503,-0.96302 -15.05503,-9.00199 0,-4.01285 -3.20725,-7.44317 -59.76753,-63.92414 -39.72205,-39.66634 -69.54095,-68.2841 -88.90792,-85.32656 -16.02721,-14.10357 -29.67562,-25.64652 -30.32979,-25.651 -0.65417,-0.005 -14.83781,12.09771 -31.51919,26.89376 -18.89887,16.76289 -53.97613,50.40534 -93.07084,89.26379 -60.11472,59.75145 -62.74262,62.54612 -62.77886,66.76305 -0.0726,8.45182 -7.80984,13.19155 -16.01912,9.81315 z"
         id="path4944"
         inkscape:connector-curvature="0" />
      <path
         style="fill:#f4c37b"
         d="m 202.28492,655.66152 c -9.73783,-5.93689 -19.22789,-18.24896 -19.22789,-24.94561 0,-4.12752 5.21298,-8.30996 10.35751,-8.30996 4.38187,0 6.37865,-1.8627 65.98231,-61.55164 33.80502,-33.8534 66.18461,-66.99879 71.95463,-73.65644 5.77001,-6.65764 18.11798,-20.69626 27.43994,-31.19692 9.32195,-10.50066 16.949,-19.53795 16.949,-20.08286 0,-0.54492 -15.65553,-14.86197 -34.79006,-31.81568 -35.24627,-31.22916 -146.75644,-140.37667 -150.26544,-147.08165 -2.40908,-4.60325 -2.07305,-12.47338 0.78461,-18.37652 2.80867,-5.80192 14.09278,-16.65195 19.79764,-19.03604 4.98988,-2.0853 13.88169,-2.04277 17.93832,0.0858 4.31839,2.26592 116.19009,114.90237 128.15018,129.02622 5.20532,6.14703 11.06991,12.83859 13.03243,14.87013 1.96252,2.03154 10.45669,11.58721 18.87594,21.23483 8.41926,9.64761 15.72985,17.54111 16.24578,17.54111 0.51593,0 4.83275,-4.41566 9.59292,-9.81258 41.26691,-46.78691 66.52848,-73.63911 116.37125,-123.69869 40.57585,-40.75237 58.89376,-58.36723 61.6389,-59.27321 2.14826,-0.70899 6.02195,-0.93157 8.6082,-0.49462 9.46994,1.59993 25.18243,14.50252 29.2854,24.04823 2.18514,5.08377 2.08364,12.73005 -0.23381,17.61369 -1.03383,2.17864 -27.38052,29.03092 -58.57813,59.7022 -63.72825,62.65317 -62.02343,61.04063 -103.978,98.34917 -16.84493,14.97953 -30.62715,27.6578 -30.62715,28.17391 0,0.51613 2.83936,4.04651 6.30967,7.84529 5.92914,6.49032 10.52405,11.91263 28.5308,33.66844 6.92558,8.36753 14.88633,16.65425 64.39516,67.03203 10.8376,11.02782 19.70473,20.58489 19.70473,21.23792 0,1.11241 -16.92789,-13.53384 -20.20247,-17.47949 -0.82393,-0.99277 -2.23538,-1.80505 -3.13653,-1.80505 -0.90116,0 -1.63847,-0.71801 -1.63847,-1.59557 0,-1.65743 -12.3651,-14.76572 -26.76158,-28.37006 -4.57921,-4.32724 -11.73528,-11.69938 -15.90239,-16.38254 -4.16711,-4.68315 -9.64782,-9.82236 -12.17936,-11.42045 -2.53154,-1.59809 -6.0801,-5.15598 -7.88569,-7.9064 -5.4121,-8.24422 -9.6522,-11.71858 -13.25395,-10.86039 -4.78578,1.14032 -6.66753,2.96702 -4.37693,4.24891 1.0226,0.57227 1.85926,1.66746 1.85926,2.43374 0,0.7663 4.09193,5.42298 9.09318,10.34818 5.00126,4.92522 23.06533,23.06567 40.14237,40.31212 36.51436,36.87656 56.43518,56.183 67.9207,65.82592 10.71076,8.99245 17.22718,15.46557 17.23789,17.12331 0.005,0.72218 1.44975,2.86311 3.21132,4.75761 1.76156,1.8945 4.41736,5.22873 5.90177,7.4094 l 2.69892,3.96488 3.01876,-3.01875 c 4.08283,-4.08283 3.80948,-6.34715 -1.44151,-11.94091 -4.14882,-4.41964 -2.85424,-4.11354 2.67616,0.63275 1.41884,1.21767 4.1669,1.98564 6.80972,1.90301 8.25022,-0.25796 12.46586,6.73314 9.21538,15.28254 -1.74889,4.59995 -14.79697,16.76908 -19.72366,18.39503 -7.63255,2.51897 -13.5478,-2.17553 -13.5478,-10.75188 0,-4.00635 -0.43573,-4.45978 -75.52713,-78.59474 -38.75263,-38.25906 -76.77419,-73.61906 -101.74954,-94.62696 -3.11421,-2.61951 -53.73444,43.5232 -125.72389,114.6032 -62.31353,61.52631 -63.33575,62.61108 -63.33575,67.21237 0,3.5832 -0.81296,5.48975 -3.47671,8.15349 -4.15661,4.15661 -8.53884,4.48146 -14.16691,1.05019 z m 4.56019,-12.59797 c 0,-1.84071 -5.06866,-8.69378 -7.71023,-10.4246 -3.15743,-2.06883 -8.94143,-2.58809 -8.94143,-0.80271 0,0.60745 2.34434,3.55123 5.20965,6.54172 3.59067,3.74755 6.17803,5.43725 8.32582,5.43725 1.7139,0 3.11619,-0.33824 3.11619,-0.75166 z M 614.7687,628.43116 c 1.55847,-2.91204 1.58651,-6.85467 0.0554,-7.8009 -0.69839,-0.43163 -0.85778,0.10206 -0.39257,1.31433 0.50124,1.3062 0.32088,1.75526 -0.50099,1.24732 -2.09203,-1.29294 -5.03234,0.45441 -6.92572,4.11579 l -1.77062,3.42407 4.15162,0 c 2.88726,0 4.52657,-0.70063 5.38286,-2.30061 z M 397.68202,411.26284 c 1.66973,-2.18912 3.03587,-4.32092 3.03587,-4.73733 0,-1.76822 -7.53285,-11.30238 -15.07147,-19.07563 -11.58723,-11.94786 -17.38667,-18.64695 -19.32487,-22.32261 -1.19775,-2.27148 -2.62304,-3.20071 -4.90932,-3.20071 -4.05595,0 -6.75591,-2.87784 -4.85211,-5.17178 1.81276,-2.18423 -2.42887,-5.99828 -6.75328,-6.07251 -2.8615,-0.0491 -3.20681,-0.50329 -3.20681,-4.21796 0,-3.96467 -0.19824,-4.16291 -4.16291,-4.16291 -3.81558,0 -4.16292,-0.29237 -4.16292,-3.50399 0,-2.75431 -1.0179,-4.19815 -4.75761,-6.74847 -2.61669,-1.78446 -4.77705,-4.23575 -4.8008,-5.4473 -0.0238,-1.21156 -1.02145,-3.52707 -2.21712,-5.14557 -2.11286,-2.86007 -2.15655,-2.86756 -1.55492,-0.26658 0.42143,1.82196 0.0729,2.67616 -1.09206,2.67616 -1.92953,0 -4.31232,-5.12922 -2.67177,-5.75126 0.57869,-0.21942 0.76407,-0.86508 0.41196,-1.43481 -0.35213,-0.56973 -1.36213,-0.75884 -2.24448,-0.42025 -1.00592,0.386 -2.07765,-0.74237 -2.87354,-3.02546 -1.1532,-3.30807 -2.51611,-4.2549 -5.38379,-3.74019 -1.54724,0.27771 -4.38994,-2.41804 -3.71,-3.51822 0.32939,-0.53296 -0.45204,-1.30256 -1.7365,-1.71023 -1.41012,-0.44755 -2.07467,-1.42065 -1.67732,-2.45611 0.39853,-1.03856 -1.12276,-3.24268 -3.85743,-5.58878 -2.48351,-2.13064 -5.77264,-5.07575 -7.30918,-6.54469 -1.53653,-1.46894 -4.37747,-3.48981 -6.3132,-4.49081 -1.93573,-1.001 -3.5195,-2.34149 -3.5195,-2.97886 0,-0.63738 -1.12597,-2.28483 -2.50216,-3.66102 -1.37618,-1.37618 -2.64329,-3.3833 -2.81579,-4.46026 -0.1725,-1.07696 -1.12688,-1.89387 -2.12085,-1.81535 -0.99397,0.0785 -4.41015,-2.5418 -7.5915,-5.82292 -3.18134,-3.28113 -7.57012,-7.62722 -9.75284,-9.65799 -12.71514,-11.83 -13.42107,-12.66643 -12.67478,-15.01779 0.57474,-1.81086 0.19659,-2.35266 -1.64206,-2.35266 -1.31382,0 -2.75222,-0.58809 -3.19644,-1.30686 -0.44423,-0.71877 -2.4248,-1.9868 -4.40128,-2.81785 -2.28824,-0.96213 -4.75117,-3.61974 -6.78039,-7.31632 -2.89973,-5.28237 -3.61361,-5.83724 -7.92478,-6.15968 -3.45723,-0.25857 -5.63541,0.35156 -8.05791,2.2571 -4.83364,3.80214 -3.5497,8.38539 4.36386,15.57755 3.42179,3.10986 6.62286,5.66752 7.11349,5.68368 0.49063,0.0162 0.89205,0.68793 0.89205,1.49279 0,1.503 12.96855,13.94628 14.5702,13.98005 0.49063,0.0103 0.89205,0.57663 0.89205,1.25841 0,1.43751 1.65263,3.5513 6.28596,8.04005 12.5698,12.17754 20.29575,19.56937 26.69143,25.5371 4.04697,3.77617 8.05061,8.30997 8.89698,10.07512 0.84637,1.76515 2.77659,3.82629 4.28937,4.58031 3.82526,1.90666 30.46583,27.31646 32.37013,30.87464 0.85698,1.60129 2.13674,2.91272 2.84391,2.9143 0.70717,0.001 4.22954,3.21308 7.82749,7.13666 3.59795,3.92359 9.08407,9.8072 12.19139,13.07469 3.10731,3.26749 5.64966,6.38548 5.64966,6.92885 0,2.67507 6.37723,6.83437 11.12924,7.25863 0.56061,0.0501 0.73625,0.82863 0.39029,1.73017 -0.7415,1.93234 1.32294,4.30785 3.74373,4.30785 1.74001,0 6.14601,4.35322 6.14601,6.07237 0,0.52292 2.67616,3.62693 5.94702,6.89779 3.27086,3.27086 5.94701,6.71733 5.94701,7.65882 0,0.9415 1.35344,2.05149 3.00765,2.46668 1.83867,0.46148 3.75432,2.32067 4.92878,4.78354 2.234,4.68474 3.78141,4.46552 8.05816,-1.14159 z m -32.6701,-23.79285 c -0.82749,-0.99707 -1.74947,-1.56791 -2.04884,-1.26853 -0.82484,0.82485 0.85108,3.08138 2.28853,3.08138 0.7887,0 0.69846,-0.68245 -0.23969,-1.81285 z M 616.65421,227.42758 c 0.44378,-0.71806 2.1025,-0.95753 3.75666,-0.54236 l 2.96202,0.74342 -2.58001,-3.62328 c -2.55848,-3.59306 -9.57273,-9.56485 -11.23453,-9.56485 -0.47561,0 -1.68169,0.81694 -2.68017,1.81543 -1.62763,1.62762 -1.61884,2.11544 0.0849,4.71576 1.04525,1.59519 1.90042,3.98964 1.90042,5.321 0,1.88589 0.77278,2.42066 3.49801,2.42066 1.92391,0 3.85562,-0.5786 4.29268,-1.28578 z m -24.08414,377.56496 c -2.98146,-2.08209 -23.43715,-22.82234 -28.33208,-28.72621 -7.27256,-8.77157 -1.31996,-4.01899 13.57422,10.83773 16.9018,16.85927 21.81905,22.81963 14.75786,17.88848 z"
         id="path4942"
         inkscape:connector-curvature="0" />
      <path
         style="fill:#dcb68a"
         d="m 202.28492,655.66152 c -9.73783,-5.93689 -19.22789,-18.24896 -19.22789,-24.94561 0,-4.12752 5.21298,-8.30996 10.35751,-8.30996 4.38187,0 6.37865,-1.8627 65.98231,-61.55164 33.80502,-33.8534 66.18461,-66.99879 71.95463,-73.65644 5.77001,-6.65764 18.11798,-20.69626 27.43994,-31.19692 9.32195,-10.50066 16.949,-19.53795 16.949,-20.08286 0,-0.54492 -15.65553,-14.86197 -34.79006,-31.81568 -35.24627,-31.22916 -146.75644,-140.37667 -150.26544,-147.08165 -2.40908,-4.60325 -2.07305,-12.47338 0.78461,-18.37652 2.80867,-5.80192 14.09278,-16.65195 19.79764,-19.03604 4.98988,-2.0853 13.88169,-2.04277 17.93832,0.0858 4.31839,2.26592 116.19009,114.90237 128.15018,129.02622 5.20532,6.14703 11.06991,12.83859 13.03243,14.87013 1.96252,2.03154 10.45669,11.58721 18.87594,21.23483 8.41926,9.64761 15.72985,17.54111 16.24578,17.54111 0.51593,0 4.83275,-4.41566 9.59292,-9.81258 41.26691,-46.78691 66.52848,-73.63911 116.37125,-123.69869 40.57585,-40.75237 58.89376,-58.36723 61.6389,-59.27321 2.14826,-0.70899 6.02195,-0.93157 8.6082,-0.49462 9.46994,1.59993 25.18243,14.50252 29.2854,24.04823 2.18514,5.08377 2.08364,12.73005 -0.23381,17.61369 -1.03383,2.17864 -27.38052,29.03092 -58.57813,59.7022 -63.72825,62.65317 -62.02343,61.04063 -103.978,98.34917 -16.84493,14.97953 -30.62715,27.6578 -30.62715,28.17391 0,0.51613 2.83936,4.04651 6.30967,7.84529 5.92914,6.49032 10.52405,11.91263 28.5308,33.66844 7.8226,9.45129 39.69761,42.67655 53.92637,56.21072 12.03812,11.45048 30.60333,31.77182 29.77912,32.59602 -0.38218,0.38219 -17.98317,-16.63301 -39.11329,-37.81156 -21.13012,-21.17854 -39.91078,-39.47183 -41.73482,-40.65177 -1.82402,-1.17992 -5.15931,-5.02624 -7.41174,-8.54736 -5.01775,-7.84402 -8.27805,-10.30405 -12.36635,-9.33095 -4.73006,1.12585 -6.59753,2.95744 -4.31677,4.23381 1.0226,0.57227 1.85926,2.08281 1.85926,3.35677 0,2.97045 7.96702,11.83836 10.63571,11.83836 2.38246,0 6.17944,3.8773 8.73573,8.92053 0.99475,1.96251 25.5442,27.19002 54.55434,56.06114 29.01013,28.87111 55.01101,55.09746 57.77972,58.28078 2.76871,3.18331 6.91862,7.92877 9.22204,10.54545 l 4.18803,4.75762 3.56404,-3.88433 c 1.96024,-2.13637 3.56405,-4.78997 3.56405,-5.89686 0,-1.10691 -2.00712,-4.15069 -4.46026,-6.76396 -4.14882,-4.41964 -2.85424,-4.11354 2.67616,0.63275 1.41884,1.21767 4.1669,1.98564 6.80972,1.90301 8.25022,-0.25796 12.46586,6.73314 9.21538,15.28254 -1.74889,4.59995 -14.79697,16.76908 -19.72366,18.39503 -7.63255,2.51897 -13.5478,-2.17553 -13.5478,-10.75188 0,-4.00635 -0.43573,-4.45978 -75.52713,-78.59474 -38.75263,-38.25906 -76.77419,-73.61906 -101.74954,-94.62696 -3.11421,-2.61951 -53.73444,43.5232 -125.72389,114.6032 -62.31353,61.52631 -63.33575,62.61108 -63.33575,67.21237 0,3.5832 -0.81296,5.48975 -3.47671,8.15349 -4.15661,4.15661 -8.53884,4.48146 -14.16691,1.05019 z m 6.99678,-11.68024 c -4.42573,-8.03041 -14.30594,-17.20895 -17.29134,-16.06334 -2.49627,0.9579 -1.65778,6.78955 1.48808,10.34954 5.93991,6.72187 18.95156,11.42633 15.80326,5.7138 z m 5.21464,-12.12829 c 3.07982,-3.409 4.14451,-5.50418 3.62646,-7.13642 -0.43188,-1.36073 -0.17883,-2.31062 0.61555,-2.31062 2.73127,0 9.58015,-6.24953 8.97693,-8.19135 -0.77375,-2.49074 1.08439,-5.43056 2.77287,-4.38702 0.72335,0.44706 3.46724,-1.45756 6.12528,-4.25174 3.45516,-3.63212 4.85602,-6.15382 4.96035,-8.92919 0.15099,-4.01631 3.02929,-6.39047 4.62239,-3.81277 0.66898,1.08242 1.56518,0.96986 3.66331,-0.46009 2.92063,-1.99051 11.2164,-9.92605 13.82654,-13.22613 0.84351,-1.06648 2.56927,-1.93905 3.83502,-1.93905 1.3541,0 3.06087,-1.46872 4.14656,-3.56821 1.01486,-1.96251 2.53533,-3.56821 3.37884,-3.56821 0.8435,0 10.59773,-9.47939 21.67607,-21.06532 11.07834,-11.58593 24.10872,-24.96682 28.95642,-29.73532 8.11846,-7.98585 8.71079,-8.89649 7.50627,-11.54012 -2.09897,-4.60674 -5.86142,-5.04517 -9.92078,-1.15606 -1.91795,1.83752 -3.23306,4.0032 -2.92245,4.81262 0.36441,0.94966 -0.11585,1.21052 -1.35391,0.73542 -1.252,-0.48043 -1.62835,-0.26654 -1.08317,0.6156 0.84198,1.36236 -8.45201,11.05633 -35.01181,36.51862 -27.96688,26.81121 -52.97626,50.39885 -56.79235,53.56378 -3.13664,2.60141 -3.86256,4.00075 -3.56821,6.87829 0.31195,3.04953 -0.12503,3.74491 -2.8041,4.46229 -3.29598,0.88256 -9.2125,4.71713 -9.27773,6.01301 -0.0206,0.4084 -1.91068,2.78772 -4.20029,5.28738 -4.72866,5.1625 -4.93508,6.01296 -2.19446,9.0413 3.001,3.31607 5.6596,2.64108 10.4404,-2.65069 z m 396.48814,0.59069 c 3.29045,-2.30473 6.59506,-8.49474 5.73355,-10.73979 -1.20707,-3.14558 -4.87542,-1.59155 -8.78352,3.72097 -5.48136,7.45118 -5.87226,8.87512 -2.43641,8.87512 1.55987,0 4.02874,-0.83534 5.48638,-1.8563 z M 359.26614,482.91977 c 4.66337,-5.57887 6.77521,-10.37867 4.56648,-10.37867 -1.59566,0 -15.44849,11.81381 -15.44849,13.17459 0,0.85266 2.42193,1.81718 5.3978,2.14968 0.67919,0.0759 3.14708,-2.14963 5.48421,-4.9456 z m 24.57199,-24.00656 c 4.23249,-4.02138 4.93401,-5.13706 2.90427,-4.6189 -3.88906,0.99281 -3.28422,-0.18993 1.55821,-3.04705 2.32892,-1.37408 3.86011,-1.89274 3.40266,-1.15258 -0.50651,0.81954 -0.18563,1.12592 0.82058,0.78355 0.90878,-0.30923 1.48479,-1.71717 1.28005,-3.12877 -0.26746,-1.84393 0.48601,-2.89288 2.67616,-3.72556 3.52326,-1.33955 3.97587,-3.18776 0.96697,-3.94862 -1.44426,-0.36521 -0.93957,-0.79324 1.64859,-1.39818 2.21729,-0.51827 4.24539,-2.00295 5.0008,-3.66088 0.69891,-1.53397 2.63322,-3.68174 4.29843,-4.77284 3.9429,-2.58348 3.84139,-4.08903 -0.27568,-4.08903 -2.0808,0 -4.41766,1.21053 -6.31425,3.27086 -1.65599,1.79898 -7.92142,7.82033 -13.92318,13.3808 -6.00174,5.56046 -10.69529,10.71402 -10.4301,11.45236 0.26518,0.73834 0.0451,3.28069 -0.48927,5.64967 -1.28167,5.68275 0.0504,5.49001 6.87576,-0.99483 z m 13.84389,-47.65037 c 1.66973,-2.18912 3.03587,-4.32092 3.03587,-4.73733 0,-1.89583 -8.11203,-12.22834 -15.29302,-19.47914 -10.54338,-10.64589 -18.01028,-19.09029 -18.01028,-20.36807 0,-0.5734 -6.02135,-7.57079 -13.38079,-15.54976 -7.35943,-7.97899 -15.52172,-16.88849 -18.1384,-19.79892 -10.01199,-11.13589 -106.03804,-107.06883 -108.48198,-108.37679 -1.41398,-0.75674 -4.80051,-1.37589 -7.52562,-1.37589 -4.04894,0 -5.69405,0.7393 -8.99872,4.04397 -6.35227,6.35227 -5.66501,9.09036 4.94152,19.68727 4.94202,4.93755 14.61771,14.59729 21.50152,21.46609 74.11902,73.95738 93.57332,93.49482 97.80608,98.22406 6.40598,7.15736 10.21162,10.1012 13.53566,10.47046 1.47607,0.16397 4.02186,1.02111 5.65729,1.90476 1.63543,0.88365 3.10732,1.51619 3.27086,1.40565 1.26211,-0.85309 2.8098,0.11394 2.30165,1.43818 -0.7415,1.93234 1.32294,4.30785 3.74373,4.30785 0.93724,0 2.75398,1.20427 4.03721,2.67616 2.32358,2.66521 2.32294,2.67771 -0.15785,3.05623 -1.37002,0.20904 -2.49097,0.84324 -2.49097,1.40932 0,0.56609 3.07759,4.55378 6.83907,8.86155 5.57287,6.38219 7.33906,7.71246 9.53964,7.18507 3.43807,-0.82399 7.79442,1.44894 6.95745,3.63004 -0.8299,2.1627 2.41576,5.3801 4.58689,4.54696 0.92803,-0.35612 3.05346,-2.43858 4.72319,-4.62772 z m 38.9354,-5.09689 c 1.54424,-1.83522 3.73274,-3.69173 4.86336,-4.12559 1.13059,-0.43386 2.05564,-1.35765 2.05564,-2.05288 0,-2.1004 -3.52216,-2.77601 -6.91492,-1.32644 -2.79089,1.19243 -2.93173,1.158 -1.11355,-0.27211 1.1448,-0.90046 2.08145,-2.24725 2.08145,-2.99284 0,-2.51267 -3.37543,-1.38085 -6.15816,2.0649 -1.51929,1.88131 -3.96663,4.04106 -5.43852,4.79947 -3.26,1.67976 -3.57037,4.11815 -0.39593,3.11061 1.84732,-0.58631 2.15971,-0.26281 1.64539,1.70397 -1.03977,3.97608 5.82473,3.31045 9.37524,-0.90909 z m -71.6055,-18.69596 c -0.82749,-0.99707 -1.74947,-1.56791 -2.04884,-1.26853 -0.82484,0.82485 0.85108,3.08138 2.28853,3.08138 0.7887,0 0.69846,-0.68245 -0.23969,-1.81285 z m 97.64596,-7.40502 c 0.50057,-4.9069 3.27917,-8.49357 6.65106,-8.58536 0.76436,-0.0208 2.54751,-1.91113 3.96257,-4.20073 1.41506,-2.28961 2.98337,-4.16292 3.48514,-4.16292 0.50178,0 5.14139,-3.7814 10.31028,-8.4031 5.16887,-4.62171 10.66694,-9.01896 12.21792,-9.77167 4.26037,-2.06761 94.11643,-91.9107 94.11643,-94.10285 0,-1.04781 0.96414,-1.90512 2.14254,-1.90512 2.15987,0 12.1303,-9.52685 12.1303,-11.59063 0,-1.89264 5.80426,-3.87162 11.35529,-3.87162 4.56042,0 5.29636,-0.34157 5.29636,-2.45816 0,-5.71946 -12.93603,-17.7617 -19.07997,-17.7617 -3.09756,0 -4.92532,2.71556 -5.25918,7.81371 -0.17027,2.60023 -4.34221,7.65761 -7.78595,9.43843 -1.95636,1.01168 -3.55701,2.61171 -3.55701,3.55564 0,1.03359 -0.70659,1.44509 -1.77644,1.03454 -1.10389,-0.42359 -2.11708,0.23705 -2.67616,1.74497 -1.10373,2.97691 -13.55837,16.20672 -16.21789,17.22727 -1.0605,0.40695 -1.92818,1.24445 -1.92818,1.86111 0,1.16401 -9.69385,11.17487 -16.83855,17.38921 -2.25634,1.96252 -5.3147,5.30772 -6.79636,7.43377 -1.48168,2.12606 -3.30226,3.86557 -4.04574,3.86557 -0.74349,0 -6.19317,4.95997 -12.1104,11.02215 -5.91723,6.06219 -16.84112,16.75668 -24.27529,23.76553 -8.90415,8.39472 -13.2881,13.33908 -12.84682,14.48903 1.24853,3.25364 -2.64515,8.42834 -13.50543,17.94869 -17.03554,14.9337 -19.73941,17.51726 -17.60674,16.82327 1.09696,-0.35697 2.54414,0.0133 3.21593,0.82273 0.885,1.06635 0.25369,2.38516 -2.29184,4.78773 -1.93231,1.8238 -3.51329,3.7666 -3.51329,4.31736 0,1.63668 7.06385,3.07649 7.22742,1.47315 z m 15.24482,-21.76621 c 2.18456,-1.99528 4.17755,-3.42219 4.42884,-3.17088 0.56736,0.56735 -6.33491,6.79868 -7.53069,6.79868 -0.47855,0 0.91729,-1.6325 3.10185,-3.6278 z m 104.599,237.04826 c -12.45027,-12.07187 -21.88253,-22.62429 -21.00606,-23.50075 0.62831,-0.62832 31.68328,30.23818 33.26315,33.06126 2.22465,3.97523 -0.44314,1.89436 -12.25709,-9.56051 z"
         id="path4940"
         inkscape:connector-curvature="0" />
      <path
         style="fill:#edb575"
         d="m 204.74477,656.33386 c -8.41717,-3.71636 -21.68774,-19.04518 -21.68774,-25.0515 0,-1.05763 1.56453,-3.4875 3.47672,-5.39969 2.59891,-2.59892 4.59596,-3.47672 7.90968,-3.47672 4.27641,0 6.62731,-2.21581 66.56607,-62.74104 60.104,-60.69209 116.41524,-121.56978 115.12964,-124.46584 -0.32072,-0.72247 -6.75004,-6.66591 -14.28738,-13.20763 C 346.73693,408.87315 347.73543,409.75587 326.19831,390.47225 293.19436,360.92162 193.51903,262.25124 190.7264,256.3662 c -4.78028,-10.07368 1.48699,-23.49935 14.89209,-31.90165 3.57748,-2.24236 6.96898,-4.07702 7.53667,-4.07702 0.56769,0 -0.61984,2.24637 -2.63895,4.99193 -5.56195,7.56309 -5.01698,9.60671 5.31439,19.92872 4.94202,4.93755 14.61771,14.59729 21.50152,21.46609 46.7754,46.67339 93.75913,93.81679 100.08917,100.42933 4.11011,4.29352 8.25815,7.8064 9.21788,7.8064 2.12764,0 2.31942,1.98864 0.25821,2.67732 -0.90627,0.3028 1.01523,3.24397 4.92129,7.53289 6.56981,7.21376 10.21141,9.60744 11.48387,7.54855 0.3967,-0.64187 3.2237,1.65031 6.28223,5.09373 3.05851,3.44342 6.65878,7.38902 8.00058,8.76802 1.34179,1.37899 2.26061,3.04428 2.04184,3.70063 -0.21878,0.65633 0.42289,1.87445 1.42594,2.7069 1.24241,1.03112 1.82371,1.08802 1.82371,0.17851 0,-2.08794 4.51113,-1.56426 5.76079,0.66876 0.72931,1.30321 0.66175,2.73979 -0.19322,4.10882 -0.72304,1.15777 -0.89551,2.52413 -0.38327,3.03636 0.51223,0.51224 3.87805,-2.27339 7.47961,-6.19028 3.60155,-3.91688 8.2884,-8.99492 10.4152,-11.28452 2.12682,-2.28961 18.81074,-21.02271 37.0754,-41.62913 40.49835,-45.69076 142.15408,-148.93159 148.80689,-151.12722 3.09362,-1.02098 4.91946,-1.0001 7.54221,0.0863 3.43598,1.42323 3.448,1.46322 1.69854,5.65026 -0.96905,2.31929 -1.50309,4.47572 -1.18675,4.79207 1.0699,1.06989 -4.27657,7.40934 -7.77414,9.218 -1.91094,0.98819 -3.47444,2.56901 -3.47444,3.51294 0,1.03359 -0.70659,1.44509 -1.77644,1.03454 -1.10389,-0.42359 -2.11708,0.23705 -2.67616,1.74497 -1.10373,2.97691 -13.55837,16.20672 -16.21789,17.22727 -1.0605,0.40695 -1.92818,1.24445 -1.92818,1.86111 0,1.16401 -9.69385,11.17487 -16.83855,17.38921 -2.25634,1.96252 -5.3147,5.30772 -6.79636,7.43377 -1.48168,2.12606 -3.30226,3.86557 -4.04574,3.86557 -0.74349,0 -6.19317,4.95997 -12.1104,11.02215 -5.91723,6.06219 -16.84112,16.75668 -24.27529,23.76553 -8.90415,8.39472 -13.2881,13.33908 -12.84682,14.48903 1.24853,3.25364 -2.64515,8.42834 -13.50543,17.94869 -17.03554,14.9337 -19.73941,17.51726 -17.60674,16.82327 1.09696,-0.35697 2.54414,0.0133 3.21593,0.82273 0.885,1.06635 0.25369,2.38516 -2.29184,4.78773 -4.31541,4.07307 -4.37816,5.0182 -0.39943,6.0168 3.61055,0.9062 3.92108,0.7125 4.61234,-2.87687 0.53495,-2.77783 3.73953,-5.8691 6.15228,-5.93478 0.76436,-0.0208 2.54751,-1.91113 3.96257,-4.20073 1.41506,-2.28961 2.98337,-4.16292 3.48514,-4.16292 0.50178,0 5.14139,-3.7814 10.31028,-8.4031 5.16887,-4.62171 10.66694,-9.01896 12.21792,-9.77167 4.26037,-2.06761 94.11643,-91.9107 94.11643,-94.10285 0,-1.04781 0.96414,-1.90512 2.14254,-1.90512 2.15987,0 12.1303,-9.52685 12.1303,-11.59063 0,-1.89264 5.80426,-3.87162 11.35529,-3.87162 4.02465,0 5.29636,-0.44932 5.29636,-1.87132 0,-3.21083 3.75935,-1.33772 6.10567,3.04217 2.64703,4.9412 2.85202,10.82951 0.53067,15.24252 -0.92923,1.76648 -28.10173,29.43814 -60.38335,61.49257 -42.19837,41.90138 -69.11386,67.47329 -95.7701,90.98937 -20.39193,17.98973 -37.09977,33.51145 -37.12854,34.49271 -0.0288,0.98126 5.54704,8.00682 12.39069,15.61238 12.29624,13.66518 17.55721,21.58896 12.55728,18.91308 -4.20985,-2.25304 -11.55469,-1.45286 -15.15979,1.65158 l -3.33718,2.87374 2.91642,3.10833 c 1.60403,1.70959 3.5724,2.85661 4.37414,2.54895 1.5367,-0.58968 11.46508,8.76323 12.12631,11.42344 0.53725,2.16139 5.15319,7.01077 7.54735,7.92901 2.14954,0.82443 105.3743,103.19949 113.66181,112.72621 2.76871,3.1827 6.81525,7.86178 8.99231,10.39794 3.66672,4.27153 4.15255,4.49057 6.59541,2.97351 1.45042,-0.90074 3.74059,-3.91244 5.08928,-6.69267 1.87785,-3.87104 3.12375,-5.05496 5.31958,-5.05496 4.03752,0 3.61816,1.64832 -2.48491,9.76719 -6.00838,7.99292 -6.40807,9.26326 -2.91444,9.26326 4.4273,0 9.59747,-3.62161 11.57413,-8.10747 1.74795,-3.9668 1.97334,-4.11742 2.38263,-1.59218 0.72219,4.45572 -1.76366,8.83346 -9.02281,15.88978 -7.47407,7.26522 -12.95472,9.80389 -17.46406,8.08945 -4.10833,-1.56198 -6.98628,-6.4572 -6.12381,-10.41621 0.66036,-3.03122 -3.58471,-7.53076 -58.43988,-61.94299 -53.3664,-52.93547 -81.06786,-79.11586 -110.62824,-104.55371 -8.26808,-7.11502 -10.38152,-8.4015 -12.20169,-7.42738 -1.2108,0.64801 -2.5287,1.70768 -2.92866,2.35482 -0.39995,0.64714 -8.05682,7.52243 -17.01524,15.27841 -8.95844,7.75598 -18.16136,15.87436 -20.45097,18.04086 -2.2896,2.1665 -9.51522,8.62765 -16.05694,14.35812 -6.54172,5.73047 -38.19493,36.82067 -70.34046,69.08933 -56.68488,56.90201 -58.4656,58.82791 -59.08306,63.89981 -1.04659,8.59691 -7.26342,12.40547 -14.81055,9.07324 z m 3.57436,-13.9894 c -2.18608,-3.78178 -13.2296,-15.1809 -14.70734,-15.1809 -1.2014,0 -4.60774,3.51248 -4.60774,4.75131 0,4.14173 15.03109,15.66963 19.05828,14.6165 2.24541,-0.58718 2.25425,-0.73142 0.2568,-4.18691 z m 6.17721,-10.49147 c 3.07982,-3.409 4.14451,-5.50418 3.62646,-7.13642 -0.43188,-1.36073 -0.17883,-2.31062 0.61555,-2.31062 2.73127,0 9.58015,-6.24953 8.97693,-8.19135 -0.77375,-2.49074 1.08439,-5.43056 2.77287,-4.38702 0.72335,0.44706 3.46724,-1.45756 6.12528,-4.25174 3.45516,-3.63212 4.85602,-6.15382 4.96035,-8.92919 0.15099,-4.01631 3.02929,-6.39047 4.62239,-3.81277 0.66898,1.08242 1.56518,0.96986 3.66331,-0.46009 2.92063,-1.99051 11.2164,-9.92605 13.82654,-13.22613 0.84351,-1.06648 2.56927,-1.93905 3.83502,-1.93905 1.3541,0 3.06087,-1.46872 4.14656,-3.56821 1.01486,-1.96251 2.53533,-3.56821 3.37884,-3.56821 0.8435,0 10.59773,-9.47939 21.67607,-21.06532 11.07834,-11.58593 24.07064,-24.92983 28.87177,-29.65312 7.26704,-7.14921 8.60242,-9.04983 7.97168,-11.34592 -0.65414,-2.38129 -0.57718,-2.46994 0.56321,-0.64886 1.24973,1.99568 1.51141,1.9736 4.85882,-0.40996 2.54706,-1.81368 3.3365,-3.15394 2.81868,-4.78544 -0.70625,-2.22519 1.24192,-3.33528 2.01809,-1.14991 0.21805,0.61396 2.21724,-0.37524 4.44262,-2.19821 l 4.04615,-3.3145 -2.55939,-2.55939 c -1.70611,-1.70611 -2.56149,-4.04646 -2.56564,-7.01967 l -0.006,-4.46027 -13.71149,14.20396 c -7.54132,7.81218 -13.45332,14.87673 -13.13779,15.69902 0.37372,0.97386 -0.0952,1.23839 -1.34493,0.75881 -1.29316,-0.49623 -1.63336,-0.27464 -1.04354,0.67971 1.26959,2.05423 -55.81211,57.86377 -59.18275,57.86377 -0.75186,0 -1.36701,0.65956 -1.36701,1.46569 0,1.43944 -14.71279,15.98714 -28.31333,27.99564 -5.88475,5.19589 -6.85058,6.61914 -6.54172,9.63993 0.30398,2.97315 -0.14888,3.68092 -2.81128,4.39384 -3.29598,0.88256 -9.2125,4.71713 -9.27773,6.01301 -0.0205,0.4084 -1.91069,2.78772 -4.20029,5.28738 -4.72866,5.1625 -4.93508,6.01296 -2.19447,9.0413 3.001,3.31607 5.6596,2.64108 10.4404,-2.65069 z M 331.13778,499.89738 c 0.4043,-0.65417 1.50636,-1.18941 2.44901,-1.18941 0.94265,0 1.7139,0.53524 1.7139,1.18941 0,0.65417 -1.10205,1.1894 -2.449,1.1894 -1.34695,0 -2.11821,-0.53523 -1.71391,-1.1894 z m 28.07342,-16.949 c 2.30691,-2.78023 4.59942,-6.12543 5.09443,-7.43378 0.83394,-2.20409 1.00927,-2.23052 2.38729,-0.35984 1.39217,1.88993 1.72399,1.87499 5.19145,-0.2337 4.04297,-2.45868 6.76495,-6.50703 5.62034,-8.35905 -0.3985,-0.64476 2.1191,-3.81424 5.59465,-7.04325 4.57336,-4.24896 5.57984,-5.68728 3.64304,-5.20612 -3.88249,0.96454 -3.28723,-0.20649 1.55821,-3.06538 2.32892,-1.37408 3.86011,-1.89274 3.40266,-1.15258 -0.50651,0.81954 -0.18563,1.12592 0.82058,0.78355 0.90878,-0.30923 1.48479,-1.71717 1.28005,-3.12877 -0.26746,-1.84393 0.48601,-2.89288 2.67616,-3.72556 3.52326,-1.33955 3.97587,-3.18776 0.96697,-3.94862 -1.44426,-0.36521 -0.93957,-0.79324 1.64859,-1.39818 2.21729,-0.51827 4.24539,-2.00295 5.0008,-3.66088 0.69891,-1.53397 2.63322,-3.68174 4.29843,-4.77284 3.9429,-2.58348 3.84139,-4.08903 -0.27568,-4.08903 -2.07794,0 -4.42465,1.21336 -6.32606,3.27086 -1.66249,1.79898 -7.80303,7.75204 -13.64564,13.22904 -5.84263,5.47699 -10.67751,10.8293 -10.7442,11.89404 -0.0667,1.06471 -0.20049,3.43933 -0.29735,5.27692 -0.25215,4.78395 -2.55491,2.72683 -2.55491,-2.28239 l 0,-4.15324 -4.08283,3.11412 c -2.24556,1.71277 -5.54346,5.02912 -7.32869,7.36968 -3.04675,3.9945 -3.1169,4.34982 -1.14361,5.79274 2.2644,1.65577 2.16256,1.7785 -9.74618,11.74527 -4.37416,3.66085 -4.78437,4.98802 -1.78411,5.77206 4.02199,1.05106 4.58605,0.77791 8.74561,-4.23507 z m 62.3631,-55.14671 c 1.61241,-1.0565 2.93166,-2.91961 2.93166,-4.14026 0,-1.43875 1.15044,-2.49418 3.27086,-3.00072 6.8999,-1.64829 8.46529,-6.11129 2.97351,-8.47762 -1.79897,-0.77516 -5.08099,-2.46878 -7.29336,-3.76363 l -4.0225,-2.35424 -5.10278,3.89626 c -5.06496,3.86738 -11.23499,10.44902 -11.23499,11.98448 0,0.44028 1.07527,0.45922 2.38949,0.0421 1.70955,-0.54259 3.80114,0.44993 7.35051,3.48806 2.72856,2.33555 5.15113,4.24645 5.38348,4.24645 0.23235,0 1.7417,-0.8644 3.35412,-1.9209 z m -7.77297,-12.28175 c 0,-0.69278 0.53523,-1.2596 1.18941,-1.2596 0.65417,0 1.1894,0.23602 1.1894,0.5245 0,0.28848 -0.53523,0.8553 -1.1894,1.2596 -0.65418,0.40431 -1.18941,0.16828 -1.18941,-0.5245 z m 22.81609,-9.35397 c 1.54424,-1.83522 3.73274,-3.69173 4.86336,-4.12559 1.13059,-0.43386 2.05564,-1.35765 2.05564,-2.05288 0,-2.1004 -3.52216,-2.77601 -6.91492,-1.32644 -2.79089,1.19243 -2.93173,1.158 -1.11355,-0.27211 1.1448,-0.90046 2.08145,-2.24725 2.08145,-2.99284 0,-2.51267 -3.37543,-1.38085 -6.15816,2.0649 -1.51929,1.88131 -3.96663,4.04106 -5.43852,4.79947 -3.26,1.67976 -3.57037,4.11815 -0.39593,3.11061 1.84732,-0.58631 2.15971,-0.26281 1.64539,1.70397 -1.03977,3.97608 5.82473,3.31045 9.37524,-0.90909 z m 14.05542,-7.91463 c 0,-0.95491 2.14093,-3.71703 4.75762,-6.13809 2.61669,-2.42104 4.75761,-4.75476 4.75761,-5.18602 0,-0.43128 -1.60569,-2.58263 -3.56821,-4.78079 -1.96251,-2.19816 -3.56821,-4.41666 -3.56821,-4.92998 0,-0.51334 -1.11018,-1.52749 -2.46705,-2.25367 -2.15488,-1.15326 -3.32128,-0.51895 -9.21788,5.01279 -7.78935,7.30736 -9.65901,10.49669 -6.1534,10.49669 1.26768,0 3.52517,1.66616 5.01663,3.70259 3.76248,5.13719 10.44289,7.74495 10.44289,4.07648 z m -62.0007,-9.86053 c -1.47947,-1.88646 -1.4374,-1.92853 0.44907,-0.44907 1.1448,0.89782 2.08145,1.83448 2.08145,2.08146 0,0.97892 -0.97672,0.34886 -2.53052,-1.63239 z m 89.23056,-30.09203 c 2.18456,-1.99528 4.17755,-3.42219 4.42884,-3.17088 0.56736,0.56735 -6.33491,6.79868 -7.53069,6.79868 -0.47855,0 0.91729,-1.6325 3.10185,-3.6278 z M 360.12645,357.4663 c -1.47946,-1.88647 -1.43739,-1.92854 0.44907,-0.44907 1.1448,0.89782 2.08146,1.83447 2.08146,2.08145 0,0.97893 -0.97673,0.34887 -2.53053,-1.63238 z m -17.70021,-18.74621 c -0.80839,-0.97405 -1.07111,-1.77101 -0.58383,-1.77101 0.48729,0 0.20951,-0.81509 -0.6173,-1.81133 -1.25947,-1.51758 -1.18129,-1.68777 0.48212,-1.04947 2.47749,0.95071 4.6852,4.85998 3.24668,5.74903 -0.58183,0.35958 -1.71926,-0.14316 -2.52767,-1.11722 z m -10.5378,-11.69302 c -0.7286,-0.8779 -0.97719,-1.94373 -0.55242,-2.36849 0.89263,-0.89264 3.96467,1.37063 3.96467,2.92091 0,1.56594 -1.91092,1.25658 -3.41225,-0.55242 z m -23.34933,-23.38129 c -1.88021,-1.96251 -2.98527,-3.56821 -2.4557,-3.56821 1.74306,0 -2.14486,-3.79348 -5.00076,-4.87929 -1.58884,-0.60408 -2.4475,-1.62815 -1.98822,-2.37127 0.98249,-1.58971 13.21113,10.13233 13.21113,12.66383 0,2.20609 0.21632,2.31205 -3.76645,-1.84506 z m -14.86754,-14.86754 c -0.81437,-0.98126 -1.06457,-1.78411 -0.556,-1.78411 0.50858,0 -0.0835,-1.20427 -1.31575,-2.67615 -1.23225,-1.47189 -0.24475,-0.83167 2.19446,1.42272 2.43919,2.25439 4.4349,4.26151 4.4349,4.46026 0,1.13465 -3.50509,0.0865 -4.75761,-1.42272 z m -13.1073,-14.30159 c -2.29837,-2.76937 -0.6584,-3.29126 1.80136,-0.57325 1.18767,1.31236 1.60675,2.3861 0.93128,2.3861 -0.67546,0 -1.90514,-0.81578 -2.73264,-1.81285 z m -11.0796,-9.88059 c -2.42395,-2.48235 -4.03947,-4.88106 -3.59005,-5.33048 0.44942,-0.44943 0.008,-0.81713 -0.98086,-0.81713 -0.9889,0 -2.76676,-1.07047 -3.95079,-2.37881 -1.18404,-1.30834 -1.73669,-2.37881 -1.22811,-2.37881 0.50857,0 0.26327,-0.79695 -0.54513,-1.77101 -0.80839,-0.97405 -1.86659,-1.52578 -2.35155,-1.22606 -0.48496,0.29972 -2.07026,-0.72017 -3.52289,-2.26642 -1.59841,-1.70143 -2.15876,-3.10951 -1.41931,-3.56652 1.13422,-0.70098 22.36682,20.10771 22.76442,22.30992 0.42978,2.38054 -1.06147,1.63871 -5.17573,-2.57468 z"
         id="path4938"
         inkscape:connector-curvature="0" />
      <path
         style="fill:#d7a670"
         d="m 204.74477,656.33386 c -8.41717,-3.71636 -21.68774,-19.04518 -21.68774,-25.0515 0,-1.05763 1.56453,-3.4875 3.47672,-5.39969 2.59891,-2.59892 4.59596,-3.47672 7.90968,-3.47672 4.27641,0 6.62731,-2.21581 66.56607,-62.74104 60.104,-60.69209 116.41524,-121.56978 115.12964,-124.46584 -0.32072,-0.72247 -6.75004,-6.66591 -14.28738,-13.20763 C 346.73693,408.87315 347.73543,409.75587 326.19831,390.47225 293.19436,360.92162 193.51903,262.25124 190.7264,256.3662 c -4.78028,-10.07368 1.48699,-23.49935 14.89209,-31.90165 3.57748,-2.24236 6.99084,-4.07702 7.58525,-4.07702 0.59442,0 -1.06754,2.33063 -3.69324,5.17917 -5.84905,6.34547 -7.00138,9.53563 -4.70209,13.01747 3.66845,5.55517 148.89087,150.14242 154.3427,153.66765 1.01555,0.65666 5.26542,4.80675 9.44415,9.22241 4.17874,4.41566 8.25412,8.02847 9.05642,8.02847 0.80229,0 1.63712,0.47047 1.85519,1.04549 0.21805,0.57502 2.48045,3.33781 5.02754,6.13954 l 4.6311,5.09403 6.46176,-7.03159 c 3.55396,-3.86736 8.20188,-8.90488 10.32868,-11.19448 2.12682,-2.28961 18.81074,-21.02271 37.0754,-41.62913 22.8298,-25.75688 50.63465,-55.01698 88.96681,-93.62317 56.46705,-56.87072 60.00893,-59.97829 66.14206,-58.03172 2.79204,0.88616 3.22298,2.97944 0.61337,2.97944 -1.09312,0 -1.7841,1.11193 -1.7841,2.87097 0,2.19454 -7.86536,10.53157 -33.38286,35.38476 -18.36059,17.88258 -37.21119,36.52802 -41.89023,41.43431 -4.67904,4.90629 -14.81264,15.25194 -22.5191,22.99033 -7.70646,7.73839 -14.01175,14.69534 -14.01175,15.45989 0,0.76454 -4.14805,5.44664 -9.21788,10.40464 -5.06983,4.95802 -13.76735,14.52269 -19.32781,21.25483 -5.56046,6.73215 -12.81311,14.71936 -16.11701,17.74938 -3.30389,3.03002 -6.36776,6.4538 -6.80859,7.60842 -0.44083,1.15462 -2.05038,2.57412 -3.57676,3.15446 -1.52637,0.58032 -4.82767,4.32864 -7.33621,8.32959 -2.50853,4.00094 -6.64448,8.80668 -9.19101,10.67941 -2.54651,1.87273 -6.55616,5.87723 -8.91032,8.89891 -2.35416,3.02167 -4.69784,5.49394 -5.20818,5.49394 -0.51034,0 -6.15355,6.02136 -12.54047,13.38079 -6.38692,7.35944 -14.33536,16.05695 -17.66319,19.32781 -3.32784,3.27086 -11.12763,11.54115 -17.33287,18.37841 -6.20522,6.83728 -14.48485,15.40099 -18.39914,19.03046 -8.32441,7.7187 -34.88597,34.39271 -57.7056,57.9499 -8.83132,9.11677 -25.00256,25.02857 -35.93609,35.35956 -10.93353,10.33101 -20.18265,19.66814 -20.5536,20.74919 -0.37095,1.08104 -2.49177,3.33938 -4.71294,5.01851 -3.98705,3.01406 -11.53601,11.42047 -13.65368,15.20453 -0.97681,1.74548 -1.38435,1.67069 -3.93048,-0.72127 -3.32657,-3.12516 -4.82685,-3.32264 -6.83745,-0.90003 -4.55126,5.48394 10.69818,22.28039 18.45969,20.33237 3.42556,-0.85976 3.72282,-2.60936 0.96171,-5.66036 -1.08627,-1.20032 -1.75531,-2.3398 -1.48675,-2.53218 4.63517,-3.32025 10.06718,-8.79815 19.25958,-19.42231 10.19205,-11.77949 28.91865,-30.08171 35.48547,-34.68129 3.64653,-2.55413 15.55512,-14.6152 32.91269,-33.33412 8.0387,-8.66918 19.47269,-20.42604 25.40886,-26.12637 5.93616,-5.70032 11.72577,-11.85043 12.86579,-13.6669 1.14001,-1.81648 5.49537,-6.26872 9.67855,-9.89385 4.18318,-3.62514 7.60652,-7.49052 7.60741,-8.58973 8.9e-4,-1.09921 0.80374,-1.99929 1.78411,-2.00019 3.14998,-0.002 7.83378,-4.02597 11.78335,-10.12119 2.11601,-3.26556 4.34739,-5.93738 4.95862,-5.93738 0.99964,0 10.95883,-9.02169 24.29055,-22.00397 2.68712,-2.61669 10.61066,-10.24703 17.60787,-16.95632 6.9972,-6.70929 12.72219,-12.98296 12.72219,-13.94148 0,-0.97152 1.71071,-2.17809 3.86557,-2.72639 2.20722,-0.56165 4.37126,-2.11167 5.04433,-3.61308 0.64832,-1.44619 2.00696,-2.8923 3.01922,-3.21359 2.16599,-0.68746 10.66955,-10.57557 10.66955,-12.40678 0,-0.69313 0.80285,-1.26022 1.78411,-1.26022 0.98126,0 1.7841,-0.78128 1.7841,-1.73616 0,-2.03026 8.44314,-10.21397 12.32054,-11.94199 1.46786,-0.65417 4.89384,-3.33033 7.61331,-5.94701 2.71946,-2.61669 11.18632,-10.37755 18.81523,-17.24636 11.36075,-10.22881 97.62465,-94.83207 121.10672,-118.77534 4.58689,-4.67697 7.32034,-6.50087 10.2548,-6.84254 4.44113,-0.51709 6.21494,-2.33865 5.43549,-5.58178 -0.82526,-3.43374 1.84939,-1.67612 4.24402,2.78891 2.61794,4.88142 2.81197,10.78235 0.49916,15.17913 -0.92923,1.76648 -28.10173,29.43814 -60.38335,61.49257 -42.19837,41.90138 -69.11386,67.47329 -95.7701,90.98937 -20.39193,17.98973 -37.09977,33.51145 -37.12854,34.49271 -0.0288,0.98126 5.54704,8.00682 12.39069,15.61238 12.29624,13.66518 17.55721,21.58896 12.55728,18.91308 -4.27415,-2.28745 -11.55881,-1.45561 -15.15979,1.73112 l -3.33718,2.95327 8.71037,8.04871 c 4.79071,4.42678 11.74872,11.21408 15.46225,15.08287 3.71353,3.86879 23.5905,23.67236 44.17104,44.00794 20.58055,20.33556 40.02288,39.64992 43.2052,42.92078 16.6154,17.07768 32.82344,33.91877 36.40158,37.82334 2.21794,2.42027 4.76029,4.40049 5.64967,4.40049 2.34222,0 6.31989,-4.33599 8.279,-9.02478 1.28515,-3.0758 2.41202,-4.05866 4.65336,-4.05866 1.62665,0 2.95755,0.56526 2.95755,1.25614 0,0.69088 -2.67616,4.56356 -5.94702,8.60596 -6.65242,8.22161 -7.53506,11.54716 -3.06477,11.54716 3.80436,0 10.05972,-5.37765 12.38719,-10.6491 1.7048,-3.86117 1.90083,-3.98223 2.3146,-1.42936 0.72219,4.45572 -1.76366,8.83346 -9.02281,15.88978 -7.47407,7.26522 -12.95472,9.80389 -17.46406,8.08945 -4.10833,-1.56198 -6.98628,-6.4572 -6.12381,-10.41621 0.66036,-3.03122 -3.58471,-7.53076 -58.43988,-61.94299 -53.3664,-52.93547 -81.06786,-79.11586 -110.62824,-104.55371 -8.26808,-7.11502 -10.38152,-8.4015 -12.20169,-7.42738 -1.2108,0.64801 -2.5287,1.70768 -2.92866,2.35482 -0.39995,0.64714 -8.05682,7.52243 -17.01524,15.27841 -8.95844,7.75598 -18.16136,15.87436 -20.45097,18.04086 -2.2896,2.1665 -9.51522,8.62765 -16.05694,14.35812 -6.54172,5.73047 -38.19493,36.82067 -70.34046,69.08933 -56.68488,56.90201 -58.4656,58.82791 -59.08306,63.89981 -1.04659,8.59691 -7.26342,12.40547 -14.81055,9.07324 z M 388.67214,388.39079 c -1.47947,-1.88646 -1.4374,-1.92853 0.44907,-0.44907 1.1448,0.89782 2.08145,1.83448 2.08145,2.08146 0,0.97892 -0.97672,0.34886 -2.53052,-1.63239 z m -44.45092,-49.97316 c -0.65417,-0.48061 -1.93415,-1.82275 -2.84439,-2.98253 -1.45434,-1.85303 -1.41428,-2.01632 0.3304,-1.34682 1.09195,0.41902 2.52456,1.76936 3.18358,3.00074 1.29711,2.42366 1.16843,2.67898 -0.66959,1.32861 z m -11.3419,-12.36866 c -1.36201,-2.65577 -1.33011,-2.68767 0.72488,-0.72489 1.18228,1.12923 1.8234,2.37934 1.42472,2.77803 -0.39869,0.39869 -1.36602,-0.52523 -2.1496,-2.05314 z m -27.6641,-27.33363 c -7.72466,-8.21483 -6.46705,-8.52942 1.56884,-0.39245 3.53728,3.58177 5.91446,6.49986 5.28263,6.48467 -0.63182,-0.0152 -3.71499,-2.75669 -6.85147,-6.09222 z m -12.18852,-12.61326 -3.30603,-4.46026 4.35426,4.09888 c 4.6377,4.36571 4.95032,4.82164 3.30602,4.82164 -0.57653,0 -2.53595,-2.00711 -4.35425,-4.46026 z m -11.95688,-12.48874 -2.2658,-2.67616 2.67616,2.2658 c 1.47189,1.24619 2.67616,2.45047 2.67616,2.67616 0,0.95183 -0.95723,0.24913 -3.08652,-2.2658 z M 263.0411,256.42451 c -6.05291,-6.29713 -10.78536,-11.66926 -10.51655,-11.93808 0.26881,-0.26881 5.48882,4.67909 11.60001,10.99535 6.11119,6.31625 11.33427,11.7086 11.60684,11.98299 0.27257,0.2744 0.005,0.47869 -0.5947,0.45399 -0.59966,-0.0247 -6.04268,-5.19712 -12.0956,-11.49425 z"
         id="path4936"
         inkscape:connector-curvature="0" />
      <path
         style="fill:#aaa299"
         d="m 204.74477,656.33386 c -8.41717,-3.71636 -21.68774,-19.04518 -21.68774,-25.0515 0,-1.05763 1.56453,-3.4875 3.47672,-5.39969 2.59891,-2.59892 4.59596,-3.47672 7.90968,-3.47672 4.27641,0 6.62731,-2.21581 66.56607,-62.74104 60.104,-60.69209 116.41524,-121.56978 115.12964,-124.46584 -0.32072,-0.72247 -6.75004,-6.66591 -14.28738,-13.20763 C 346.73693,408.87315 347.73543,409.75587 326.19831,390.47225 293.19436,360.92162 193.51903,262.25124 190.7264,256.3662 c -3.24359,-6.83536 -1.86726,-14.40425 4.00286,-22.01302 2.69143,-3.4886 7.03263,-7.54516 9.64709,-9.01457 l 4.75358,-2.67166 -4.11058,6.10829 c -3.09237,4.59525 -3.93587,6.89086 -3.40529,9.26758 0.44032,1.97241 7.02904,9.34604 17.53836,19.62768 19.24198,18.82513 52.76799,52.12562 66.78802,66.33875 8.6859,8.80554 70.88413,69.59787 92.12714,90.04474 6.32604,6.08896 9.47792,8.34318 10.9931,7.86228 1.16833,-0.37081 5.08206,-4.25221 8.69718,-8.62534 3.61512,-4.37313 7.82072,-9.28922 9.34576,-10.92465 1.52504,-1.63543 17.70457,-19.8333 35.95449,-40.43972 40.02562,-45.19384 142.10029,-148.92267 148.68693,-151.09646 6.14292,-2.02734 6.95496,-0.39478 2.5794,5.18576 -6.29462,8.02812 -47.14309,49.27554 -96.96751,97.91454 -7.35943,7.18434 -13.38079,13.64993 -13.38079,14.36797 0,1.28106 -13.04317,15.90986 -21.49935,24.11296 -2.36024,2.2896 -7.22133,7.64192 -10.80242,11.89404 -3.58111,4.25212 -9.4195,10.72371 -12.97419,14.38133 -8.96158,9.22103 -24.43976,25.71803 -30.84587,32.87623 -12.67241,14.16023 -48.06554,52.89426 -66.04336,72.2775 -6.06741,6.54172 -38.71047,39.71254 -72.54014,73.71295 -33.82968,34.00041 -63.33141,63.94857 -65.55939,66.55148 l -4.05089,4.73255 -3.59932,-2.12617 c -2.85578,-1.68695 -3.95646,-1.82975 -5.32823,-0.69129 -4.64961,3.85884 -0.0453,13.50347 9.51235,19.92562 4.68051,3.14501 6.54467,3.76064 9.48357,3.13192 2.01186,-0.4304 3.85785,-0.96456 4.10221,-1.18701 0.52225,-0.47543 -0.47806,-2.72802 -2.36973,-5.33633 -1.10995,-1.53047 0.60883,-3.92449 9.80501,-13.65708 6.13299,-6.4907 17.29741,-17.69832 24.80983,-24.9058 17.8821,-17.15627 32.07701,-31.36789 55.32647,-55.39161 10.46675,-10.81532 22.77708,-23.21943 27.35628,-27.56469 4.57921,-4.34525 12.60768,-12.24242 17.84106,-17.54927 5.23337,-5.30683 14.97959,-14.48541 21.65825,-20.39684 6.67866,-5.91143 12.42802,-11.63965 12.77636,-12.72937 0.34834,-1.08972 3.16497,-4.12223 6.25917,-6.73892 3.09419,-2.61669 11.94709,-10.90112 19.6731,-18.40986 7.72601,-7.50874 14.96674,-14.14472 16.09053,-14.74663 1.12377,-0.60191 5.78985,-4.94472 10.36905,-9.65068 4.5792,-4.70596 12.07245,-11.78545 16.65165,-15.7322 4.57921,-3.94675 11.2696,-10.2491 14.86755,-14.00521 17.10875,-17.8609 35.54542,-35.73781 39.84502,-38.63528 2.61668,-1.76336 29.10234,-27.45243 58.85699,-57.08682 40.38753,-40.22428 55.38528,-54.4319 59.17283,-56.05544 3.82389,-1.63911 5.07345,-2.8338 5.07345,-4.85068 0,-2.46071 0.15413,-2.52181 1.91639,-0.75956 2.78455,2.78455 3.50401,11.71473 1.2842,15.93996 -1.00207,1.90738 -28.23419,29.69431 -60.51581,61.74874 -42.19837,41.90138 -69.11386,67.47329 -95.7701,90.98937 -20.39193,17.98973 -37.0955,33.51145 -37.11904,34.49271 -0.0236,0.98126 5.83184,8.34589 13.01194,16.36586 7.18009,8.01996 13.05472,15.03776 13.05472,15.59509 0,0.55734 -2.80996,0.975 -6.24437,0.92814 -6.49977,-0.0887 -13.97549,3.09838 -13.97549,5.95808 0,0.80452 22.07831,23.30126 49.0629,49.99276 59.35032,58.70569 92.83855,92.34908 98.42315,98.87915 2.2896,2.67724 4.99943,4.88944 6.02184,4.916 2.56669,0.0667 7.91416,-5.76688 9.52674,-10.39272 1.00467,-2.88201 2.04399,-3.83182 4.19294,-3.83182 1.57142,0 2.85715,0.27518 2.85715,0.61151 0,0.33632 -2.4004,3.55854 -5.33422,7.16047 -5.98371,7.34638 -9.21482,12.96461 -8.09825,14.08119 3.13052,3.13052 13.01215,-2.28891 16.64475,-9.12856 1.49376,-2.81255 2.13219,-3.28237 2.44938,-1.80247 0.67094,3.13027 -2.54086,8.16592 -9.43559,14.79368 -7.08547,6.81109 -12.60554,9.2737 -17.02294,7.59421 -4.10833,-1.56198 -6.98628,-6.4572 -6.12381,-10.41621 0.66036,-3.03122 -3.58471,-7.53076 -58.43988,-61.94299 -53.3664,-52.93547 -81.06786,-79.11586 -110.62824,-104.55371 -8.26808,-7.11502 -10.38152,-8.4015 -12.20169,-7.42738 -1.2108,0.64801 -2.5287,1.70768 -2.92866,2.35482 -0.39995,0.64714 -8.05682,7.52243 -17.01524,15.27841 -8.95844,7.75598 -18.16136,15.87436 -20.45097,18.04086 -2.2896,2.1665 -9.51522,8.62765 -16.05694,14.35812 -6.54172,5.73047 -38.19493,36.82067 -70.34046,69.08933 -56.68488,56.90201 -58.4656,58.82791 -59.08306,63.89981 -1.04659,8.59691 -7.26342,12.40547 -14.81055,9.07324 z"
         id="path4934"
         inkscape:connector-curvature="0" />
      <path
         style="fill:#cc9966"
         d="m 202.023,653.5302 c -6.33576,-4.036 -13.54661,-11.81481 -16.2952,-17.57865 -1.79638,-3.76705 -1.81783,-4.51244 -0.21225,-7.37299 0.98239,-1.75025 2.83823,-3.37182 4.12409,-3.60349 1.89027,-0.34056 2.05324,-0.12582 0.85117,1.12153 -4.17852,4.33584 0.33463,13.5194 9.75452,19.84897 4.68051,3.14501 6.54467,3.76064 9.48357,3.13192 4.72454,-1.01073 5.05819,-1.39694 3.31094,-3.83257 -0.79875,-1.11342 -1.74848,-2.62765 -2.11054,-3.36495 -0.75664,-1.54086 15.27739,-18.82569 35.14692,-37.8887 17.8821,-17.15627 32.07701,-31.36789 55.32647,-55.39161 10.46675,-10.81532 22.77708,-23.21943 27.35628,-27.56469 4.57921,-4.34525 12.60768,-12.24242 17.84106,-17.54927 5.23337,-5.30683 14.97959,-14.48541 21.65825,-20.39684 6.67866,-5.91143 12.42802,-11.63965 12.77636,-12.72937 0.34834,-1.08972 3.16497,-4.12223 6.25917,-6.73892 3.09419,-2.61669 11.94709,-10.90112 19.6731,-18.40986 7.72601,-7.50874 14.96674,-14.14472 16.09053,-14.74663 1.12377,-0.60191 5.78985,-4.94472 10.36905,-9.65068 4.5792,-4.70596 12.07245,-11.78545 16.65165,-15.7322 4.57921,-3.94675 11.2696,-10.2491 14.86755,-14.00521 17.10875,-17.8609 35.54542,-35.73781 39.84502,-38.63528 2.61668,-1.76336 29.10234,-27.45243 58.85699,-57.08682 40.38753,-40.22428 55.38528,-54.4319 59.17283,-56.05544 3.81016,-1.63322 5.07345,-2.83681 5.07345,-4.83369 0,-4.88567 2.40802,-0.50404 3.14562,5.72375 0.4934,4.16608 0.16242,6.98125 -1.10803,9.42415 -2.70112,5.19392 -108.76762,110.05204 -133.46669,131.94616 -50.0686,44.38254 -61.25428,54.46769 -61.25428,55.22765 0,0.44197 6.15516,7.71182 13.67814,16.15523 7.52298,8.4434 13.67814,15.66923 13.67814,16.05739 0,0.38815 -2.55314,0.70573 -5.67365,0.70573 -5.92786,0 -13.35681,3.33789 -13.35681,6.00134 0,0.80452 22.07831,23.30126 49.0629,49.99276 59.35032,58.70569 92.83855,92.34908 98.42315,98.87915 2.2896,2.67724 4.99943,4.88944 6.02184,4.916 2.38566,0.062 7.73817,-5.53648 9.3353,-9.76428 0.90047,-2.38366 2.05387,-3.27086 4.25227,-3.27086 2.9477,0 2.89443,0.15003 -2.33127,6.56578 -5.99615,7.36165 -9.22929,12.98063 -8.11194,14.09799 0.41002,0.41002 2.23945,0.7455 4.06539,0.7455 3.30272,0 10.53995,-5.93618 13.77586,-11.29934 1.18033,-1.95627 1.2161,-1.70255 0.20136,1.42836 -1.51174,4.6643 -9.22561,13.61163 -14.59753,16.93167 -8.26427,5.10759 -16.52344,1.69762 -15.9652,-6.59158 0.27565,-4.09289 -1.48751,-5.9821 -59.13792,-63.36541 -32.68212,-32.53071 -67.45051,-66.34776 -77.26309,-75.14901 -31.49521,-28.24917 -42.24743,-37.39173 -43.97503,-37.39173 -0.9289,0 -16.03517,12.68244 -33.5695,28.18318 -38.69527,34.2075 -156.97705,151.7695 -155.79581,154.84775 1.15036,2.99778 -1.44585,8.62078 -4.65554,10.08321 -4.25713,1.93968 -5.34685,1.74446 -11.24866,-2.0151 z m -7.07193,-27.55604 -2.97351,-2.32591 3.31959,-0.0264 c 2.74566,-0.0219 8.70915,-5.43977 34.49271,-31.33701 71.29782,-71.6122 107.7645,-108.86541 113.30728,-115.75112 3.23493,-4.01872 12.43828,-14.45558 20.45189,-23.19303 8.01361,-8.73744 14.57019,-16.50838 14.57019,-17.26877 0,-0.76037 -5.75374,-6.45367 -12.78609,-12.65177 -7.03234,-6.19809 -23.20543,-20.49538 -35.94017,-31.77178 -27.48293,-24.33566 -134.50093,-129.75678 -137.27057,-135.2223 -4.38341,-8.65007 -1.47106,-17.35411 9.17583,-27.42349 3.62664,-3.42993 6.85735,-6.23623 7.17936,-6.23623 0.32201,0 -1.24924,2.72637 -3.49167,6.0586 -3.06345,4.55227 -3.90178,6.84408 -3.37185,9.21788 0.44032,1.97241 7.02904,9.34604 17.53836,19.62768 19.24198,18.82513 52.76799,52.12562 66.78802,66.33875 8.6859,8.80554 70.88413,69.59787 92.12714,90.04474 6.18439,5.95262 9.49439,8.33796 10.93544,7.88059 1.1366,-0.36075 4.90646,-3.95814 8.37746,-7.9942 3.47101,-4.03607 8.47211,-9.49563 11.11358,-12.13236 6.47686,-6.46526 25.83487,-27.71827 29.28369,-32.15034 16.53011,-21.24282 145.93864,-154.27373 152.90395,-157.18403 7.09781,-2.96565 8.05139,-2.07866 3.71292,3.45362 -6.36416,8.11534 -47.01313,49.16875 -97.03769,98.00313 -7.35943,7.18434 -13.38079,13.64993 -13.38079,14.36797 0,1.28106 -13.04317,15.90986 -21.49935,24.11296 -2.36024,2.2896 -7.22133,7.64192 -10.80242,11.89404 -3.58111,4.25212 -9.4195,10.72371 -12.97419,14.38133 -8.96158,9.22103 -24.43976,25.71803 -30.84587,32.87623 -12.76532,14.26403 -48.25548,53.1018 -66.04754,72.2775 -6.06971,6.54172 -39.52428,40.52893 -74.34351,75.52713 -34.81922,34.9982 -64.10218,64.83736 -65.07322,66.30925 -2.15079,3.26011 -3.57835,3.31717 -7.43897,0.29735 z"
         id="path4932"
         inkscape:connector-curvature="0" />
      <path
         style="fill:#af8960"
         d="m 202.023,653.5302 c -6.33576,-4.036 -13.54661,-11.81481 -16.2952,-17.57865 -1.77959,-3.73184 -1.80731,-4.52965 -0.25313,-7.28604 2.43843,-4.32466 5.26943,-5.20122 3.37585,-1.04526 -1.1794,2.58848 -0.94846,3.9058 1.52852,8.71904 4.06096,7.89122 11.5677,13.42294 18.21538,13.42294 5.8512,0 7.36186,-1.91766 4.60795,-5.84943 -1.70399,-2.43278 -1.31773,-3.05679 8.1182,-13.11512 5.44902,-5.80844 16.83603,-17.16458 25.30447,-25.23586 8.46844,-8.07128 22.09542,-21.63308 30.28219,-30.13731 8.18676,-8.50424 21.0304,-21.3498 28.54138,-28.54569 7.511,-7.19589 20.37798,-19.97107 28.5933,-28.38929 8.21531,-8.41821 24.56429,-24.20754 36.33106,-35.08741 11.76678,-10.87985 27.57211,-25.6691 35.12295,-32.86499 7.55084,-7.19589 19.54499,-18.43576 26.65366,-24.97748 7.10868,-6.54172 17.06946,-15.90827 22.13507,-20.81456 5.06562,-4.90629 14.46609,-13.73761 20.88995,-19.62516 23.27886,-21.33535 29.64418,-27.34146 31.1703,-29.4113 0.85481,-1.15933 2.19289,-2.1223 2.97351,-2.1399 0.78063,-0.0176 26.03997,-24.70698 56.13188,-54.8653 30.49374,-30.56102 56.3619,-55.53669 58.43855,-56.42231 2.40782,-1.02686 4.03398,-2.76117 4.59656,-4.90223 0.79822,-3.03794 0.95111,-3.11557 1.84008,-0.93441 1.53232,3.7597 1.28659,9.94002 -0.53439,13.43986 -2.59685,4.99103 -109.34488,110.4166 -133.32621,131.67448 -50.0686,44.38254 -61.25428,54.46769 -61.25428,55.22765 0,0.44197 6.15516,7.71182 13.67814,16.15523 7.52298,8.4434 13.67833,15.63835 13.67857,15.98876 2.4e-4,0.35042 -3.34731,0.58641 -7.43897,0.52441 l -7.43939,-0.11276 -10.99405,-11.09918 -10.99404,-11.09918 -2.84318,2.67103 -2.84318,2.67103 2.98106,3.18854 c 1.6396,1.75371 4.90051,5.51813 7.24651,8.36541 2.34599,2.84727 5.41201,5.61277 6.81339,6.14558 1.40138,0.5328 3.5036,2.98261 4.67161,5.44401 1.168,2.4614 7.00382,9.23306 12.96848,15.04816 22.37019,21.80925 72.57516,71.83286 130.07365,129.60375 l 10.99309,11.04517 3.57711,-2.02614 c 4.13372,-2.34141 4.48273,-1.57808 1.1983,2.62084 -1.27925,1.63543 -2.33781,3.92696 -2.35236,5.09229 -0.0684,5.48307 8.4298,3.11261 15.92653,-4.44245 4.12993,-4.16207 4.47871,-4.33033 2.57972,-1.24454 -3.14189,5.10544 -6.5626,8.75027 -11.87209,12.64994 -8.6104,6.3241 -17.75415,3.31771 -17.15095,-5.63911 0.27565,-4.09289 -1.48751,-5.98209 -59.13792,-63.3654 -32.68212,-32.53067 -67.45051,-66.34772 -77.26309,-75.14897 -31.49521,-28.24917 -42.24743,-37.39173 -43.97503,-37.39173 -0.9289,0 -16.03517,12.68244 -33.5695,28.18318 -38.69527,34.2075 -156.97705,151.7695 -155.79581,154.84775 1.15036,2.99778 -1.44585,8.62078 -4.65554,10.08321 -4.25713,1.93968 -5.34685,1.74446 -11.24866,-2.0151 z m -5.88253,-28.15074 c -1.21523,-1.46427 -1.12599,-1.78411 0.4978,-1.78411 1.08816,0 16.00637,-14.08976 33.15159,-31.31056 71.29782,-71.61219 107.7645,-108.86541 113.30728,-115.75112 3.23493,-4.01872 12.43828,-14.45558 20.45189,-23.19302 8.01361,-8.73744 14.57019,-16.50839 14.57019,-17.26877 0,-0.76038 -5.75374,-6.45367 -12.78609,-12.65177 -7.03234,-6.19809 -23.20543,-20.49539 -35.94017,-31.77178 C 301.91003,367.3127 194.89203,261.89158 192.12239,256.42606 c -4.10844,-8.10746 -1.47836,-17.19797 7.48551,-25.87263 5.39206,-5.2181 6.03111,-5.0104 2.48404,0.80734 -5.30348,8.69849 -7.21521,6.27554 48.58765,61.58038 87.52287,86.74176 133.38311,130.8344 136.07933,130.8344 0.94593,0 4.55627,-3.07758 8.02299,-6.83907 3.46671,-3.76149 9.03048,-9.784 12.36391,-13.38335 16.68731,-18.01848 28.13022,-30.6805 30.63193,-33.89545 10.06296,-12.93188 41.11715,-45.88414 91.24485,-96.82179 53.33962,-54.20147 63.93209,-63.99605 66.46746,-61.46067 0.59951,0.5995 -67.24552,69.58635 -97.17679,98.81228 -7.36955,7.1959 -15.88497,16.11062 -18.92312,19.81051 -5.37323,6.54353 -23.74253,26.90698 -73.88174,81.90231 -13.42862,14.7292 -28.1623,31.02837 -32.7415,36.22037 -4.57921,5.192 -12.07245,13.49255 -16.65165,18.44567 -4.57921,4.95312 -12.30737,13.38642 -17.17371,18.74066 -10.53495,11.59122 -139.69836,141.85654 -140.65657,141.85654 -0.36511,0 -1.33014,-0.80284 -2.14451,-1.7841 z m 410.78523,-4.66968 c 0.92225,-2.94656 2.0347,-4.25085 3.62559,-4.25085 2.12889,0 2.08755,0.23689 -0.57057,3.27086 -1.57612,1.79897 -3.20763,3.71186 -3.62559,4.25085 -0.41796,0.539 -0.1612,-0.93289 0.57057,-3.27086 z"
         id="path4930"
         inkscape:connector-curvature="0" />
      <path
         style="fill:#967350"
         d="m 205.061,655.24511 c -4.81873,-2.1073 -17.21361,-14.66267 -19.23646,-19.48554 -1.30511,-3.11163 -1.34119,-4.42425 -0.17978,-6.54172 1.37169,-2.50084 1.50338,-2.36285 2.35452,2.46702 1.04277,5.91728 6.39325,13.23485 12.38451,16.93765 8.51438,5.26217 18.30658,2.23328 14.00488,-4.33194 -1.82572,-2.78639 -1.22492,-3.42948 62.37458,-66.76428 35.31994,-35.17292 71.85126,-70.90879 81.1807,-79.41303 9.32946,-8.50423 20.49545,-19.02202 24.81333,-23.37285 4.31788,-4.35084 12.0696,-11.46059 17.22607,-15.79945 5.15647,-4.33886 10.38523,-9.17262 11.61945,-10.7417 1.23423,-1.56906 7.18471,-6.83297 13.22328,-11.69754 6.03857,-4.86459 13.88174,-12.19074 17.42926,-16.28032 3.54753,-4.08959 7.94134,-8.34253 9.76404,-9.45098 3.34209,-2.03244 14.56375,-12.50333 20.06273,-18.72045 3.78947,-4.28438 32.30146,-30.96615 36.5599,-34.21309 3.56959,-2.72171 71.48336,-69.59589 95.91537,-94.44713 17.03355,-17.32583 25.34764,-23.93531 26.46045,-21.03536 2.05832,5.36389 -2.08623,10.04549 -57.01965,64.40832 -54.07373,53.51206 -65.19928,63.96693 -114.16074,107.27882 -13.54477,11.98185 -24.62684,22.25274 -24.62684,22.82419 0,0.57145 5.88754,7.62292 13.08344,15.66993 7.19589,8.047 13.08344,15.09536 13.08344,15.66302 0,3.316 -7.46226,-2.05471 -18.25366,-13.13743 l -12.35566,-12.68921 -6.08888,4.46965 c -3.34889,2.45832 -7.21203,5.8975 -8.58475,7.64264 l -2.49588,3.173 2.69772,1.79221 c 2.42811,1.61311 9.85438,8.876 24.0769,23.5472 2.72099,2.80682 6.55295,5.94551 8.51547,6.97485 4.54139,2.38197 10.10993,7.56538 10.10993,9.41072 0,0.78027 3.07758,3.7003 6.83907,6.48897 3.76149,2.78867 29.68283,27.87505 57.60297,55.74752 27.92014,27.87247 51.73795,51.60765 52.92846,52.74485 1.19051,1.13722 5.64357,5.54104 9.89568,9.7863 4.25212,4.24526 8.61685,7.73048 9.6994,7.74494 1.60567,0.0214 1.85126,0.89879 1.33306,4.76225 -0.81221,6.0554 1.26388,7.02535 7.8478,3.66648 5.83754,-2.97808 5.45581,-0.89099 -0.693,3.78894 -8.11887,6.17938 -18.01327,2.85252 -16.6423,-5.59577 0.60402,-3.72218 -1.26281,-5.72332 -60.22833,-64.56114 -58.39244,-58.26597 -116.36303,-112.11919 -120.69132,-112.11919 -1.0004,0 -5.35925,3.3452 -9.68634,7.43378 -8.71215,8.23193 -21.56633,19.70515 -36.92565,32.95861 -5.56046,4.79807 -39.94909,38.48227 -76.41918,74.85374 -62.2997,62.13125 -66.31035,66.38192 -66.32747,70.29685 -0.0211,4.8342 -0.79011,6.27068 -4.36385,8.15176 -3.19039,1.67928 -3.64955,1.66308 -8.10667,-0.28609 z m -7.73112,-30.3802 c 0,-0.61009 1.07103,-1.44919 2.38007,-1.86466 1.30903,-0.41547 2.93356,-1.78962 3.61005,-3.05365 0.6765,-1.26406 1.85139,-2.29827 2.61087,-2.29827 0.75948,0 -0.43481,1.87332 -2.65398,4.16292 -4.03233,4.16032 -5.94701,5.14345 -5.94701,3.05366 z m 44.60263,-44.08809 c 1.18404,-1.30834 2.42041,-2.3788 2.74749,-2.3788 0.32709,0 -0.37405,1.07046 -1.55809,2.3788 -1.18403,1.30835 -2.4204,2.37881 -2.74749,2.37881 -0.32708,0 0.37406,-1.07046 1.55809,-2.37881 z m 4.16291,-3.91027 c 0,-0.18814 2.78185,-2.9981 6.18188,-6.24437 3.40003,-3.24627 5.40715,-4.83184 4.46026,-3.5235 -2.73532,3.77949 -10.64214,11.03674 -10.64214,9.76787 z m 98.7466,-101.35195 c 2.90295,-4.08467 11.06144,-13.03293 12.90031,-14.14909 2.96033,-1.79688 -2.79137,5.42192 -8.90436,11.17559 -3.1276,2.94377 -4.92579,4.28185 -3.99595,2.9735 z m 20.78847,-23.19337 c 1.18404,-1.30834 2.42041,-2.3788 2.74749,-2.3788 0.32709,0 -0.37405,1.07046 -1.55809,2.3788 -1.18404,1.30835 -2.42041,2.37881 -2.7475,2.37881 -0.32709,0 0.37406,-1.07046 1.5581,-2.37881 z m 9.51522,-10.70463 c 1.18404,-1.30834 2.42042,-2.37881 2.7475,-2.37881 0.32709,0 -0.37405,1.07047 -1.55809,2.37881 -1.18404,1.30835 -2.42041,2.37881 -2.7475,2.37881 -0.32709,0 0.37406,-1.07046 1.55809,-2.37881 z m 2.97351,-5.91097 c 0,-0.63434 -5.03069,-5.58523 -11.1793,-11.00198 -6.14862,-5.41675 -21.80414,-19.20915 -34.79005,-30.64979 -26.07844,-22.97518 -135.0017,-129.77841 -139.34469,-136.63252 -3.60433,-5.68836 -3.06208,-13.62438 1.39066,-20.35292 3.76135,-5.68378 5.92454,-6.32283 4.14751,-1.22524 -2.41686,6.93302 0.79287,12.3098 17.06282,28.58275 30.6894,30.69507 108.83789,107.85402 114.83956,113.38544 3.4344,3.1653 6.24437,6.46155 6.24437,7.32502 0,2.17509 15.07053,16.47092 18.30211,17.3613 3.19294,0.87972 15.00119,11.54309 15.00119,13.54673 0,0.78638 2.77536,3.98634 6.16748,7.11101 l 6.16749,5.68122 4.01423,-2.1618 c 2.20781,-1.18899 8.64041,-7.54624 14.29464,-14.12724 16.59768,-19.31811 27.93913,-31.68488 28.5227,-31.1013 1.00791,1.00791 -6.11727,9.53248 -21.08726,25.22883 -8.18725,8.58449 -17.56207,18.85964 -20.83293,22.83365 -5.47777,6.65536 -8.92053,9.04695 -8.92053,6.19684 z m 52.99452,-57.08679 c 0.5425,-0.95891 10.32842,-12.46639 21.74649,-25.57218 22.18818,-25.46783 135.71039,-140.44162 137.88912,-139.65226 0.68526,0.24828 -23.72742,25.64791 -54.25039,56.44363 -30.52298,30.79572 -62.81351,64.2477 -71.75676,74.33773 -15.35905,17.32855 -35.77738,38.2415 -33.62846,34.44308 z"
         id="path4928"
         inkscape:connector-curvature="0" />
      <path
         style="fill:#705f4f"
         d="m 203.11131,653.38018 -2.80792,-2.32905 4.64476,1.24651 c 3.33403,0.89475 5.4752,0.86814 7.58748,-0.0943 3.51292,-1.60061 4.74278,-0.81758 2.65916,1.69303 -2.109,2.54118 -8.73894,2.25795 -12.08348,-0.51621 z m 386.76174,-9.18958 c -1.88869,-2.40108 -2.3142,-4.09096 -1.71595,-6.81479 0.76937,-3.50289 -1.1942,-5.59121 -59.72119,-63.51569 -55.34625,-54.77646 -77.42694,-75.80678 -99.06875,-94.35604 -4.30909,-3.69334 -10.75448,-9.44708 -14.32308,-12.78609 -3.5686,-3.33901 -6.96673,-6.07093 -7.55139,-6.07093 -1.01537,0 -8.8752,6.83315 -27.42472,23.84239 -4.66976,4.282 -13.30755,11.75776 -19.1951,16.61279 -12.80776,10.56166 -143.32313,140.23113 -143.32313,142.39424 0,2.00382 -1.96121,1.93315 -2.74094,-0.0987 -1.01751,-2.65161 150.9421,-152.95182 160.83577,-159.07945 1.68815,-1.04555 6.28075,-5.15152 10.20578,-9.12439 3.92503,-3.97286 10.61542,-9.98613 14.86754,-13.36281 4.25212,-3.37668 11.13468,-9.85797 15.29457,-14.40284 4.15989,-4.54489 8.97697,-9.00548 10.70463,-9.91242 1.72766,-0.90695 7.72776,-6.15059 13.33357,-11.65253 5.6058,-5.50196 12.56381,-11.66948 15.46225,-13.70562 2.89842,-2.03613 10.62218,-9.15604 17.1639,-15.822 6.54172,-6.66598 19.10106,-18.60689 27.90964,-26.53537 8.80859,-7.92849 40.11964,-38.32552 69.58011,-67.54897 29.46048,-29.22344 55.03639,-54.28437 56.83537,-55.69094 2.75893,-2.15714 3.27086,-2.25542 3.27086,-0.62791 0,1.06122 -0.74954,3.3748 -1.66566,5.14129 -3.60759,6.95634 -137.13603,136.32975 -153.55151,148.77341 -1.96252,1.48768 -8.65291,7.41512 -14.86755,13.1721 -6.21463,5.75698 -14.37691,12.97023 -18.1384,16.02943 -3.76149,3.05921 -6.83907,6.52269 -6.83907,7.69664 0,1.17394 5.61993,8.33811 12.48873,15.92038 6.86881,7.58228 12.48874,14.08562 12.48874,14.45187 0,1.94827 -3.46223,0.20417 -5.7575,-2.90034 -4.90459,-6.63387 -20.67045,-23.79009 -21.86207,-23.79009 -1.44336,0 -14.67268,10.45739 -18.72737,14.80345 -3.55602,3.81155 -2.76588,5.60677 4.69045,10.65685 2.80676,1.90099 8.95674,7.37289 13.66661,12.1598 4.70989,4.78689 12.01536,11.52764 16.2344,14.97942 10.55473,8.63528 9.69389,7.80379 77.76738,75.11506 33.36277,32.9892 62.47408,61.59754 64.69181,63.57409 3.42016,3.04824 3.92232,4.1432 3.30823,7.21365 -0.9135,4.56748 1.63425,6.34709 6.60561,4.61407 4.74182,-1.65301 5.48859,-0.30602 1.09108,1.96802 -5.35008,2.76664 -9.13544,2.35075 -12.02365,-1.32101 z m -402.72416,-6.85862 c -1.0505,-1.60327 -1.72694,-3.86558 -1.5032,-5.02736 0.26756,-1.38936 1.0827,-0.39165 2.3816,2.91502 2.23069,5.67879 1.93086,6.3998 -0.8784,2.11234 z M 364.7515,422.18687 c -8.33349,-7.30338 -19.57336,-17.20178 -24.97747,-21.99646 -5.4041,-4.79469 -14.64274,-12.81941 -20.53028,-17.83274 -5.88755,-5.01332 -36.81,-35.06803 -68.71656,-66.78825 -49.50264,-49.21353 -58.19881,-58.3672 -59.28608,-62.40502 -1.44562,-5.36859 0.0604,-12.40054 3.21692,-15.02019 1.66856,-1.38478 1.78426,-1.07316 1.05157,2.83241 -1.88261,10.03513 -3.21376,8.42946 55.65506,67.13298 30.2476,30.16267 58.44896,57.95597 62.66968,61.76287 4.22072,3.8069 14.24057,13.47822 22.26633,21.49183 8.02578,8.01361 15.31641,14.57019 16.20139,14.57019 2.29907,0 29.7536,27.47246 28.57815,28.59682 -0.53728,0.51394 -7.7952,-5.04106 -16.12871,-12.34444 z m 106.1412,-88.21129 c 0.81438,-0.98126 1.7483,-1.78411 2.07538,-1.78411 0.32709,0 -0.0716,0.80285 -0.88597,1.78411 -0.81437,0.98125 -1.74829,1.7841 -2.07538,1.7841 -0.32709,0 0.0716,-0.80285 0.88597,-1.7841 z"
         id="path4926"
         inkscape:connector-curvature="0" />
      <path
         style="fill:#674f37"
         d="m 206.84511,654.51985 c -1.39751,-0.90314 -1.09643,-1.15692 1.38947,-1.1712 1.74547,-0.01 4.15401,-0.32952 5.35232,-0.71001 1.9937,-0.63304 1.98266,-0.53203 -0.13005,1.1894 -2.65276,2.16148 -4.10282,2.3132 -6.61174,0.69181 z m 383.71956,-10.55337 c -1.25896,-1.39114 -1.90897,-3.81534 -1.73111,-6.45622 0.20326,-3.01817 -0.41447,-4.84902 -2.1579,-6.39564 -1.34348,-1.19183 -5.33071,-5.35565 -8.86052,-9.25293 l -6.41783,-7.08599 9.21788,8.24982 c 5.06983,4.5374 9.21787,8.62669 9.21787,9.08729 0,0.46061 1.09284,1.18432 2.42852,1.60824 2.37233,0.75296 2.41179,1.66735 0.31337,7.26464 -0.27493,0.73337 0.37197,2.20525 1.43758,3.27086 1.55244,1.55244 1.60267,1.93747 0.25275,1.93747 -0.9266,0 -2.59188,-1.00239 -3.70061,-2.22754 z m -375.39374,-1.80812 c 0,-0.91127 0.81523,-1.96969 1.81163,-2.35204 1.47802,-0.56717 1.57983,-0.26206 0.55285,1.65686 -1.47556,2.75711 -2.36448,3.01846 -2.36448,0.69518 z m 14.50764,-14.69745 c 4.93522,-5.06983 13.99317,-14.01937 20.12877,-19.88785 6.1356,-5.86848 2.33039,-1.72043 -8.45601,9.21788 -10.7864,10.93832 -19.84435,19.88785 -20.12877,19.88785 -0.28442,0 3.52078,-4.14804 8.45601,-9.21788 z m 322.00355,-32.11389 -2.88348,-3.27086 3.27086,2.88348 c 1.79897,1.58593 3.27086,3.05781 3.27086,3.27086 0,0.93283 -0.96318,0.17363 -3.65824,-2.88348 z m -288.93505,-0.42718 c 0,-0.27055 8.96105,-9.31715 19.91343,-20.10356 10.95238,-10.78639 16.33251,-15.86501 11.95582,-11.28581 -4.37668,4.5792 -9.99252,10.48632 -12.47965,13.12691 -5.58947,5.93438 -19.3896,18.93229 -19.3896,18.26246 z m 281.73694,-6.70924 c -1.47947,-1.88647 -1.4374,-1.92854 0.44907,-0.44908 1.1448,0.89783 2.08145,1.83448 2.08145,2.08146 0,0.97893 -0.97672,0.34886 -2.53052,-1.63238 z m -5.88533,-5.94702 -2.88348,-3.27086 3.27086,2.88348 c 1.79897,1.58593 3.27086,3.05781 3.27086,3.27086 0,0.93283 -0.96318,0.17363 -3.65824,-2.88348 z m -8.9435,-8.92053 -2.2658,-2.67616 2.67615,2.2658 c 1.47189,1.24619 2.67616,2.45046 2.67616,2.67616 0,0.95182 -0.95722,0.24912 -3.08651,-2.2658 z m -205.6741,-39.8903 c 7.18474,-7.33453 13.29104,-13.33551 13.56956,-13.33551 0.88918,0 -12.10398,13.44518 -19.4963,20.17458 -3.92503,3.57304 -1.25799,0.49546 5.92674,-6.83907 z m 157.61626,-7.38849 c 0,-0.65417 0.23602,-1.18941 0.5245,-1.18941 0.28848,0 0.8553,0.53524 1.2596,1.18941 0.4043,0.65417 0.16828,1.1894 -0.5245,1.1894 -0.69278,0 -1.2596,-0.53523 -1.2596,-1.1894 z m -7.73113,-7.13642 c -1.18404,-1.30835 -1.61756,-2.37881 -0.96339,-2.37881 0.65417,0 2.15816,1.07046 3.3422,2.37881 1.18404,1.30834 1.61757,2.3788 0.96339,2.3788 -0.65417,0 -2.15816,-1.07046 -3.3422,-2.3788 z m -20.90899,-19.79128 c -2.74491,-2.98436 -2.75745,-3.06699 -0.26916,-1.77302 2.76024,1.4354 4.5126,3.53892 3.65913,4.39239 -0.28098,0.28098 -1.80647,-0.89773 -3.38997,-2.61937 z m -91.48965,-0.86517 c 0,-1.03825 9.8387,-10.30507 12.45953,-11.73533 2.21764,-1.21022 2.25008,-1.13234 0.57747,1.38675 -1.76853,2.66354 -13.037,11.60829 -13.037,10.34858 z m 64.79614,-22.42463 c -5.07753,-4.11112 -6.67344,-5.92285 -5.89927,-6.69704 0.63736,-0.63735 8.16814,5.7688 9.92915,8.44634 1.88129,2.86044 1.41177,2.65664 -4.02988,-1.7493 z m -33.3449,-6.30132 c 3.23347,-2.89733 6.12049,-5.02642 6.4156,-4.73132 0.83552,0.83554 -9.13972,10.1124 -10.80926,10.05249 -0.81698,-0.0293 1.16018,-2.42384 4.39366,-5.32117 z m 19.69312,-16.00679 c 0,-2.37844 12.16579,-14.32535 15.36302,-15.08662 1.69,-0.40241 3.74177,-1.25862 4.55949,-1.90268 0.81771,-0.64407 1.45519,-0.70408 1.41661,-0.13334 -0.0385,0.57072 -3.56133,3.98145 -7.82835,7.5794 -11.26019,9.4946 -13.51077,11.08428 -13.51077,9.54324 z m 31.75744,-30.22354 c 1.23915,-2.1494 10.97872,-10.24419 12.3257,-10.24419 1.97412,0 -0.27765,2.98863 -5.60093,7.43377 -5.44252,4.5447 -8.44895,5.80115 -6.72477,2.81042 z m -84.82538,-6.43803 c -6.60787,-5.23436 -9.42009,-8.3212 -8.45771,-9.28359 0.36428,-0.36428 1.64483,-0.1249 2.84565,0.53194 3.16732,1.7325 12.85757,11.91406 12.07959,12.69204 -0.36299,0.363 -3.27339,-1.41017 -6.46753,-3.94039 z m 112.53812,-17.50285 c 0,-1.05186 22.54468,-22.87227 36.87151,-35.68697 7.52298,-6.72896 21.70662,-20.33738 31.51919,-30.24091 39.1408,-39.5036 86.36908,-86.31924 87.45784,-86.6937 0.634,-0.21806 1.17312,0.58478 1.19804,1.7841 0.0277,1.3312 -21.63129,23.64848 -55.60462,57.29473 -48.37595,47.91021 -64.02208,62.7719 -93.64972,88.9545 -5.39791,4.77025 -7.79224,6.18009 -7.79224,4.58825 z M 312.52674,375.13137 C 285.76915,351.08572 192.87085,257.27654 191.90697,253.32891 c -0.98574,-4.03713 0.0803,-11.43538 1.90407,-13.21356 0.97117,-0.94693 1.10659,-0.10273 0.50698,3.16038 -0.44999,2.44885 -0.45052,5.92785 -10e-4,7.73113 0.54702,2.19527 20.3398,22.70151 59.89843,62.05756 32.4948,32.32838 60.96638,60.16043 63.27019,61.84899 9.9285,7.277 16.94394,15.55884 13.17968,15.55884 -0.58704,0 -8.74933,-6.9034 -18.13841,-15.34088 z"
         id="path4924"
         inkscape:connector-curvature="0" />
    </g>
  </g>
</svg>
